# xmcd
#
# Track frame offsets:
#	150
#	19730
#	39537
#	56675
#	82832
#	100777
#	121880
#	142015
#	163142
#	184900
#	202010
#	221575
#	241860
#	259017
#	278562
#
# Disc length: 4024 seconds
#
# Revision: 11
# Processed by: cddbd v1.5.2PL0 Copyright (c) Steve Scherf et al.
# Submitted via: EasyCDDAExtractor 15.3.0.1
#
DISCID=d10fb60f
DTITLE=Marc Anthony
DYEAR=1999
DGENRE=Pop
TTITLE0=When I Dream At Night
TTITLE1=Am I The Only One
TTITLE2=I Need To Know
TTITLE3=You Sang To Me
TTITLE4=My Baby You
TTITLE5=No One
TTITLE6=How Could I
TTITLE7=That's Okay
TTITLE8=Don't Let Me Leave
TTITLE9=Remember Me
TTITLE10=She's Been Good To Me
TTITLE11=Love Is All
TTITLE12=Dimelo (I Need To Know)
TTITLE13=Como Ella Me Quiere A Mi (She's Been Good To Me)
TTITLE14=Da La Vuelta
EXTD=
EXTT0=
EXTT1=
EXTT2=
EXTT3=
EXTT4=
EXTT5=
EXTT6=
EXTT7=
EXTT8=
EXTT9=
EXTT10=
EXTT11=
EXTT12=
EXTT13=
EXTT14=
PLAYORDER=
